{"title":"Thor ( 2011 ) DVDrip Stumpie1971","uid":6634251,"size":1759117521,"categoryP":"video","categoryS":"movies","magnet":"?xt=urn:btih:2a8f58be4196ed89c3d0569d83779927be51568c&amp;dn=Thor+%28+2011+%29+DVDrip+Stumpie1971&amp;tr=udp%3A%2F%2Ftracker.openbittorrent.com%3A80&amp;tr=udp%3A%2F%2Fopen.demonii.com%3A1337&amp;tr=udp%3A%2F%2Ftracker.coppersurfer.tk%3A6969&amp;tr=udp%3A%2F%2Fexodus.desync.com%3A6969","seeders":0,"leechers":1,"uploader":"stumpie1971","files":-1,"time":1314490896,"description":" &lt;a href=&quot; http://pix2links.com/images/80462501436246190603.jpg&quot; rel=&quot;nofollow&quot; target=&quot;_NEW&quot;&gt; http://pix2links.com/images/80462501436246190603.jpg&lt;/a&gt;\n\nScreens:\n  &lt;a href=&quot;\nhttp://pix2links.com/images/01951469534881083656.jpg&quot; rel=&quot;nofollow&quot; target=&quot;_NEW&quot;&gt;\nhttp://pix2links.com/images/01951469534881083656.jpg&lt;/a&gt;\n  &lt;a href=&quot;\nhttp://pix2links.com/images/58492275915728467520.jpg&quot; rel=&quot;nofollow&quot; target=&quot;_NEW&quot;&gt;\nhttp://pix2links.com/images/58492275915728467520.jpg&lt;/a&gt;\n  &lt;a href=&quot;\nhttp://pix2links.com/images/61535199268084984458.jpg&quot; rel=&quot;nofollow&quot; target=&quot;_NEW&quot;&gt;\nhttp://pix2links.com/images/61535199268084984458.jpg&lt;/a&gt;\n  &lt;a href=&quot;\nhttp://pix2links.com/images/80964015068769427488.jpg&quot; rel=&quot;nofollow&quot; target=&quot;_NEW&quot;&gt;\nhttp://pix2links.com/images/80964015068769427488.jpg&lt;/a&gt;\nAlternative:\n  &lt;a href=&quot;\nhttp://www.postimg.com/image/46000/photo-45348.jpg&quot; rel=&quot;nofollow&quot; target=&quot;_NEW&quot;&gt;\nhttp://www.postimg.com/image/46000/photo-45348.jpg&lt;/a&gt;\n  &lt;a href=&quot;\nhttp://www.postimg.com/image/46000/photo-45349.jpg&quot; rel=&quot;nofollow&quot; target=&quot;_NEW&quot;&gt;\nhttp://www.postimg.com/image/46000/photo-45349.jpg&lt;/a&gt;\n  &lt;a href=&quot;\nhttp://www.postimg.com/image/46000/photo-45350.jpg&quot; rel=&quot;nofollow&quot; target=&quot;_NEW&quot;&gt;\nhttp://www.postimg.com/image/46000/photo-45350.jpg&lt;/a&gt;\n  &lt;a href=&quot;\nhttp://www.postimg.com/image/46000/photo-45351.jpg&quot; rel=&quot;nofollow&quot; target=&quot;_NEW&quot;&gt;\nhttp://www.postimg.com/image/46000/photo-45351.jpg&lt;/a&gt;\n\nScreenCaps:\n  &lt;a href=&quot;\nhttp://www.postimg.com/image/46000/photo-45352.jpg&quot; rel=&quot;nofollow&quot; target=&quot;_NEW&quot;&gt;\nhttp://www.postimg.com/image/46000/photo-45352.jpg&lt;/a&gt;\n\nThor (2011) DVDRip XviD-MAX\n\nFormat                           : AVI\nFormat/Info                      : Audio Video Interleave\nFormat profile                   : OpenDML\nFile size                        : 1.62 GiB\nDuration                         : 1h 54mn\nOverall bit rate                 : 2 022 Kbps\nWriting application              : VirtualDubMod 1.5.10.2 (build 2542/release)\nWriting library                  : VirtualDubMod build 2542/release\nOriginal source form             : MAX TORRENTZ\nCopyright                        : SIGISMUNT\n\nVideo\nID                               : 0\nFormat                           : MPEG-4 Visual\nFormat profile                   : AdvancedSimple@L5\nFormat settings, BVOP            : Yes\nFormat settings, QPel            : No\nFormat settings, GMC             : No warppoints\nFormat settings, Matrix          : Custom\nCodec ID                         : XVID\nCodec ID/Hint                    : XviD\nDuration                         : 1h 54mn\nBit rate                         : 1 569 Kbps\nWidth                            : 720 pixels\nHeight                           : 304 pixels\nDisplay aspect ratio             : 2.35:1\nFrame rate                       : 23.976 fps\nResolution                       : 24 bits\nColorimetry                      : 4:2:0\nScan type                        : Progressive\nBits/(Pixel*Frame)               : 0.299\nStream size                      : 1.26 GiB (78%)\nWriting library                  : XviD 58\n\nAudio\nID                               : 1\nFormat                           : AC-3\nFormat/Info                      : Audio Coding 3\nCodec ID                         : 2000\nDuration                         : 1h 54mn\nBit rate mode                    : Constant\nBit rate                         : 448 Kbps\nChannel(s)                       : 6 channels\nChannel positions                : Front: L C R, Surround: L R, LFE\nSampling rate                    : 48.0 KHz\nStream size                      : 368 MiB (22%)\nAlignment                        : Aligned on interleaves\nInterleave, duration             : 64 ms (1.53 video frames)\nInterleave, preload duration     : 192 ms\n  &lt;a href=&quot;\nhttp://www.imdb.com/title/tt0800369/&quot; rel=&quot;nofollow&quot; target=&quot;_NEW&quot;&gt;\nhttp://www.imdb.com/title/tt0800369/&lt;/a&gt;\n \nSource: DVD+AC3 (perfect a/v/sync quality,sample included)\nThis torrent is not seedbox supported,please seed it to the MAX\n\nNote:If you have something to offer as early releases,seedboxes,links,accounts,etc\nplease contact us on piratepedia[@]msn/gmail.com or our website torentz 3xforum ro\n\nThor (2011) DVDRip XviD-MAX Torrent Free Download\n\nHow To Get Your Maxspeed (uTorrent)\n\nTorrent Client - Preferences - Bandwidth - Number of connections - Set aprox. 500 for each \nTorrent Client - Preferences - BiTorrent - Protocol Encryption - Forced\nBandwidth Allocation - High (Set download/upload limit - Unlimited)\nStop Other Active Torrents - Start downloading and wait for connections.\nEnjoy and Seed for at least 1:1 ratio. Don't forget to say thanks/leave reviews.\nBefore downloading you should check/google search sample &quot;release name&quot;&quot;sample&quot;.\nGreets to all actual/future p2p/scene QUALITY groups and affiliate websites.\nDon't trust IMDb robot or bad ratings,always watch some trailers first.\nIgnore stupid comments/fake/mislabeled/no-DVDrips/CAM/TS/RAR uploads.\nPlease spread this release/torrent to your friends/forums/etc.\nIf you need translation subs visit some subtitles sites.\nReport if you see online streaming or other spam links.\nRecommended movie player VLC PLAYER.","torrent":{"xt":"urn:btih:2a8f58be4196ed89c3d0569d83779927be51568c","amp;dn":"Thor+%28+2011+%29+DVDrip+Stumpie1971","amp;tr":["udp%3A%2F%2Ftracker.openbittorrent.com%3A80","udp%3A%2F%2Fopen.demonii.com%3A1337","udp%3A%2F%2Ftracker.coppersurfer.tk%3A6969","udp%3A%2F%2Fexodus.desync.com%3A6969"],"infoHash":"2a8f58be4196ed89c3d0569d83779927be51568c","infoHashBuffer":{"type":"Buffer","data":[42,143,88,190,65,150,237,137,195,208,86,157,131,119,153,39,190,81,86,140]},"announce":[],"urlList":[]}}